<?xml version="1.0" encoding="UTF-8"?>
<svg id="Layer_1" data-name="Layer 1" xmlns="http://www.w3.org/2000/svg" viewBox="0 0 162.32 48.19">
  <defs>
    <style>
      .cls-1, .cls-2 {
        fill: #fff;
      }

      .cls-2 {
        fill-rule: evenodd;
      }
    </style>
  </defs>
  <path id="Fill-67" class="cls-2" d="m2.79,44.88c.97,0,1.38-.41,1.38-1,0-.66-.52-1.17-1.35-1.17h-1.48v2.17h1.45Zm-.12-3.14c.7,0,1.23-.41,1.23-1.06,0-.57-.41-.99-1.2-.99h-1.36v2.05h1.33ZM0,38.59h2.84c1.61,0,2.41.82,2.41,1.92,0,.9-.57,1.41-1.3,1.58v.07c.79.04,1.59.7,1.59,1.82s-.83,2.02-2.53,2.02H0v-7.42Z"/>
  <path id="Fill-68" class="cls-2" d="m10.33,42.7c0-.76-.51-1.31-1.27-1.31s-1.31.6-1.35,1.31h2.62Zm-3.92.56c0-1.72,1.04-2.89,2.63-2.89,1.37,0,2.54.86,2.54,2.81v.4h-3.88c.01.95.57,1.51,1.42,1.51.57,0,1-.25,1.18-.72l1.23.14c-.23.97-1.12,1.6-2.42,1.6-1.68,0-2.7-1.11-2.7-2.86h0Z"/>
  <path id="Fill-69" class="cls-2" d="m15.48,41.46h-1.1v2.88c0,.53.26.65.59.65.16,0,.31-.03.38-.05l.22,1.03c-.14.05-.4.12-.77.13-.99.03-1.75-.49-1.74-1.53v-3.09h-.79v-1.02h.79v-1.33h1.31v1.33h1.1v1.02Z"/>
  <path id="Fill-70" class="cls-2" d="m19.36,41.46h-1.1v2.88c0,.53.26.65.6.65.16,0,.31-.03.38-.05l.22,1.03c-.14.05-.4.12-.77.13-.99.03-1.75-.49-1.74-1.53v-3.09h-.79v-1.02h.79v-1.33h1.31v1.33h1.1v1.02Z"/>
  <path id="Fill-71" class="cls-2" d="m24.08,42.7c0-.76-.51-1.31-1.27-1.31s-1.31.6-1.35,1.31h2.62Zm-3.92.56c0-1.72,1.04-2.89,2.63-2.89,1.37,0,2.54.86,2.54,2.81v.4h-3.88c.01.95.57,1.51,1.42,1.51.57,0,1-.25,1.18-.72l1.23.14c-.23.97-1.12,1.6-2.42,1.6-1.68,0-2.7-1.11-2.7-2.86h0Z"/>
  <path id="Fill-72" class="cls-2" d="m26.45,40.44h1.27v.93h.06c.2-.64.74-1.01,1.37-1.01.14,0,.35.01.47.04v1.21c-.11-.04-.39-.08-.61-.08-.72,0-1.25.5-1.25,1.21v3.27h-1.31v-5.57Z"/>
  <polygon id="Fill-73" class="cls-2" points="32.77 38.59 38.69 38.59 38.69 39.71 36.39 39.71 36.39 46.01 35.06 46.01 35.06 39.71 32.77 39.71 32.77 38.59"/>
  <path id="Fill-74" class="cls-2" d="m42.64,42.7c0-.76-.51-1.31-1.27-1.31s-1.31.6-1.35,1.31h2.62Zm-3.92.56c0-1.72,1.04-2.89,2.63-2.89,1.37,0,2.54.86,2.54,2.81v.4h-3.88c.01.95.57,1.51,1.42,1.51.57,0,1-.25,1.18-.72l1.23.14c-.23.97-1.12,1.6-2.42,1.6-1.68,0-2.7-1.11-2.7-2.86h0Z"/>
  <path id="Fill-75" class="cls-2" d="m48.21,42.04c-.1-.37-.42-.7-1.02-.7-.55,0-.97.26-.96.64,0,.32.22.52.79.65l.95.2c1.05.23,1.56.71,1.56,1.51,0,1.05-.99,1.78-2.38,1.78s-2.22-.61-2.39-1.63l1.28-.12c.11.5.5.76,1.1.76s1.04-.29,1.04-.67c0-.32-.24-.52-.75-.63l-.95-.2c-1.07-.22-1.57-.76-1.57-1.57,0-1.03.91-1.69,2.25-1.69s2.06.6,2.24,1.54l-1.2.13Z"/>
  <path id="Fill-76" class="cls-2" d="m53.4,41.46h-1.1v2.88c0,.53.26.65.59.65.16,0,.31-.03.38-.05l.22,1.03c-.14.05-.4.12-.77.13-.99.03-1.75-.49-1.74-1.53v-3.09h-.79v-1.02h.79v-1.33h1.31v1.33h1.1v1.02Z"/>
  <path id="Fill-77" class="cls-2" d="m54.49,46.01h1.31v-5.57h-1.31v5.57Zm-.1-7.07c0-.39.34-.71.76-.71s.76.32.76.71-.34.71-.76.71-.76-.32-.76-.71h0Z"/>
  <path id="Fill-78" class="cls-2" d="m58.47,46.01h-1.31v-5.57h1.25v.95h.07c.25-.62.82-1.02,1.66-1.02,1.15,0,1.91.76,1.91,2.1v3.54h-1.31v-3.34c0-.74-.4-1.19-1.08-1.19s-1.18.46-1.18,1.27v3.26Z"/>
  <path id="Fill-79" class="cls-2" d="m67.12,43.2c0-1.05-.46-1.75-1.31-1.75s-1.32.74-1.32,1.75.46,1.7,1.32,1.7,1.31-.64,1.31-1.7m-3.78,3.61l1.18-.29c.16.3.51.68,1.3.68.75,0,1.29-.34,1.29-1.13v-1.05h-.06c-.2.41-.65.92-1.6.92-1.28,0-2.29-.91-2.29-2.72s1.01-2.84,2.3-2.84c.98,0,1.4.59,1.6.99h.07v-.92h1.29v5.66c0,1.4-1.11,2.09-2.61,2.09-1.42,0-2.22-.63-2.46-1.38"/>
  <path id="Fill-80" class="cls-2" d="m71.26,45.39c-.1.91-.5,1.97-.68,2.43h-.88c.1-.44.36-1.44.42-2.42l.03-.41h1.16l-.05.4Z"/>
  <path id="Fill-81" class="cls-2" d="m77.93,44.88c.97,0,1.38-.41,1.38-1,0-.66-.52-1.17-1.35-1.17h-1.48v2.17h1.45Zm-.12-3.14c.7,0,1.23-.41,1.23-1.06,0-.57-.41-.99-1.2-.99h-1.36v2.05h1.33Zm-2.67-3.16h2.84c1.61,0,2.41.82,2.41,1.92,0,.9-.57,1.41-1.3,1.58v.07c.79.04,1.59.7,1.59,1.82s-.83,2.02-2.53,2.02h-3v-7.42Z"/>
  <path id="Fill-82" class="cls-2" d="m85.47,42.7c0-.76-.51-1.31-1.27-1.31s-1.31.6-1.35,1.31h2.62Zm-3.92.56c0-1.72,1.04-2.89,2.63-2.89,1.37,0,2.54.86,2.54,2.81v.4h-3.88c.01.95.57,1.51,1.42,1.51.57,0,1-.25,1.18-.72l1.23.14c-.23.97-1.12,1.6-2.42,1.6-1.68,0-2.7-1.11-2.7-2.86h0Z"/>
  <path id="Fill-83" class="cls-2" d="m90.62,41.46h-1.1v2.88c0,.53.26.65.59.65.16,0,.31-.03.38-.05l.22,1.03c-.14.05-.4.12-.77.13-.99.03-1.75-.49-1.74-1.53v-3.09h-.79v-1.02h.79v-1.33h1.31v1.33h1.1v1.02Z"/>
  <path id="Fill-84" class="cls-2" d="m94.5,41.46h-1.1v2.88c0,.53.26.65.6.65.16,0,.31-.03.38-.05l.22,1.03c-.14.05-.4.12-.77.13-.99.03-1.75-.49-1.74-1.53v-3.09h-.79v-1.02h.79v-1.33h1.31v1.33h1.1v1.02Z"/>
  <path id="Fill-85" class="cls-2" d="m99.22,42.7c0-.76-.51-1.31-1.27-1.31s-1.31.6-1.35,1.31h2.62Zm-3.92.56c0-1.72,1.04-2.89,2.63-2.89,1.37,0,2.54.86,2.54,2.81v.4h-3.88c.01.95.57,1.51,1.42,1.51.57,0,1-.25,1.18-.72l1.23.14c-.23.97-1.12,1.6-2.42,1.6-1.68,0-2.7-1.11-2.7-2.86h0Z"/>
  <path id="Fill-86" class="cls-2" d="m101.59,40.44h1.27v.93h.06c.2-.64.74-1.01,1.37-1.01.14,0,.35.01.47.04v1.21c-.11-.04-.39-.08-.61-.08-.72,0-1.25.5-1.25,1.21v3.27h-1.31v-5.57Z"/>
  <polygon id="Fill-87" class="cls-2" points="107.9 38.59 113.82 38.59 113.82 39.71 111.53 39.71 111.53 46.01 110.2 46.01 110.2 39.71 107.9 39.71 107.9 38.59"/>
  <path id="Fill-88" class="cls-2" d="m114.33,40.44h1.27v.93h.06c.2-.64.74-1.01,1.37-1.01.14,0,.35.01.47.04v1.21c-.11-.04-.39-.08-.61-.08-.72,0-1.25.5-1.25,1.21v3.27h-1.31v-5.57Z"/>
  <path id="Fill-89" class="cls-2" d="m121.83,42.7c0-.76-.51-1.31-1.27-1.31s-1.31.6-1.35,1.31h2.62Zm-3.92.56c0-1.72,1.04-2.89,2.64-2.89,1.37,0,2.54.86,2.54,2.81v.4h-3.88c.01.95.57,1.51,1.42,1.51.57,0,1-.25,1.18-.72l1.23.14c-.23.97-1.12,1.6-2.42,1.6-1.68,0-2.71-1.11-2.71-2.86h0Z"/>
  <path id="Fill-90" class="cls-2" d="m127.43,44.01v-.66c-.17.14-.86.22-1.2.27-.59.08-1.02.29-1.02.8s.39.73.94.73c.79,0,1.29-.53,1.29-1.14m-3.49.43c0-1.25,1.03-1.58,2.11-1.69.98-.11,1.38-.12,1.38-.5v-.02c0-.55-.33-.86-.94-.86-.64,0-1.01.33-1.14.71l-1.22-.17c.29-1.02,1.19-1.54,2.36-1.54,1.06,0,2.26.44,2.26,1.91v3.72h-1.26v-.76h-.04c-.24.47-.76.88-1.63.88-1.06,0-1.86-.58-1.86-1.67"/>
  <path id="Fill-91" class="cls-2" d="m132.84,41.46h-1.1v2.88c0,.53.26.65.59.65.16,0,.31-.03.38-.05l.22,1.03c-.14.05-.4.12-.77.13-.99.03-1.75-.49-1.74-1.53v-3.09h-.79v-1.02h.79v-1.33h1.31v1.33h1.1v1.02Z"/>
  <path id="Fill-92" class="cls-2" d="m133.94,40.44h1.25v.95h.07c.23-.63.79-1.02,1.54-1.02s1.29.39,1.5,1.02h.06c.25-.62.86-1.02,1.67-1.02,1.02,0,1.74.66,1.74,1.9v3.74h-1.31v-3.53c0-.69-.42-1-.95-1-.63,0-1.01.44-1.01,1.06v3.47h-1.29v-3.59c0-.57-.38-.95-.94-.95s-1.02.46-1.02,1.15v3.38h-1.31v-5.57Z"/>
  <path id="Fill-93" class="cls-2" d="m146.79,42.7c0-.76-.51-1.31-1.27-1.31s-1.31.6-1.35,1.31h2.62Zm-3.92.56c0-1.72,1.04-2.89,2.63-2.89,1.37,0,2.54.86,2.54,2.81v.4h-3.88c.01.95.57,1.51,1.42,1.51.57,0,1-.25,1.18-.72l1.23.14c-.23.97-1.12,1.6-2.42,1.6-1.68,0-2.7-1.11-2.7-2.86h0Z"/>
  <path id="Fill-94" class="cls-2" d="m150.47,46.01h-1.31v-5.57h1.25v.95h.07c.25-.62.83-1.02,1.66-1.02,1.15,0,1.91.76,1.91,2.1v3.54h-1.31v-3.34c0-.74-.4-1.19-1.08-1.19s-1.18.46-1.18,1.27v3.26Z"/>
  <path id="Fill-95" class="cls-2" d="m158.16,41.46h-1.1v2.88c0,.53.26.65.59.65.16,0,.31-.03.38-.05l.22,1.03c-.14.05-.4.12-.77.13-.99.03-1.75-.49-1.74-1.53v-3.09h-.79v-1.02h.79v-1.33h1.31v1.33h1.1v1.02Z"/>
  <path id="Fill-96" class="cls-2" d="m6.09,24.75c3.31,0,5.06-1.7,5.06-5.64s-1.75-5.6-5.05-5.6h-2.38v11.24h2.37Zm-6.09,3.19V10.32h6.3c5.32,0,8.57,3.3,8.57,8.79s-3.25,8.83-8.62,8.83H0Z"/>
  <polygon id="Fill-97" class="cls-2" points="17.56 27.94 21.23 27.94 21.23 14.73 17.56 14.73 17.56 27.94"/>
  <path id="Fill-98" class="cls-2" d="m31.73,23.22v-1.4c-.44.29-1.75.48-2.55.59-1.29.18-2.14.69-2.14,1.72s.81,1.53,1.94,1.53c1.61,0,2.75-1.06,2.75-2.44m-8.19,1.03c0-2.95,2.35-3.83,4.96-4.07,2.3-.22,3.2-.34,3.2-1.19v-.05c0-1.08-.71-1.71-1.96-1.71-1.32,0-2.1.65-2.35,1.52l-3.39-.28c.51-2.41,2.59-3.92,5.76-3.92,2.94,0,5.61,1.33,5.61,4.47v8.91h-3.48v-1.83h-.1c-.64,1.23-1.91,2.08-3.86,2.08-2.52,0-4.39-1.33-4.39-3.94"/>
  <path id="Fill-99" class="cls-2" d="m37.7,21.38c0-4.05,2.48-6.83,6.49-6.83,3.45,0,5.76,2,5.92,5.06h-3.46c-.2-1.32-1.06-2.2-2.4-2.2-1.7,0-2.82,1.43-2.82,3.92s1.11,3.97,2.82,3.97c1.26,0,2.18-.79,2.4-2.2h3.46c-.17,3.04-2.38,5.1-5.9,5.1-4.07,0-6.5-2.8-6.5-6.81"/>
  <path id="Fill-100" class="cls-2" d="m61.11,20c0-1.57-1.11-2.71-2.7-2.71s-2.77,1.21-2.85,2.71h5.55Zm-9.17,1.39c0-4.08,2.52-6.84,6.41-6.84,3.5,0,6.21,2.22,6.21,6.71v1h-9c0,1.98,1.16,3.19,3,3.19,1.22,0,2.17-.53,2.54-1.53l3.39.22c-.51,2.45-2.72,4.04-5.99,4.04-4.07,0-6.56-2.61-6.56-6.8h0Z"/>
  <path id="Fill-101" class="cls-2" d="m75.43,14.72h3.67v13.22h-3.52v-2.4h-.14c-.59,1.55-2.02,2.57-4.01,2.57-2.66,0-4.46-1.89-4.47-4.97v-8.41h3.67v7.76c0,1.56.9,2.53,2.29,2.53s2.53-.93,2.52-2.7v-7.59Z"/>
  <path id="Fill-102" class="cls-2" d="m89.06,17.48h-2.49v6.4c0,1.02.51,1.29,1.24,1.29.34,0,.73-.09.91-.12l.58,2.73c-.37.12-1.04.31-1.99.34-2.66.11-4.42-1.17-4.41-3.76v-6.88h-1.81v-2.75h1.81v-3.17h3.67v3.17h2.49v2.75Z"/>
  <polygon id="Fill-103" class="cls-2" points="91.45 27.94 95.12 27.94 95.12 14.73 91.45 14.73 91.45 27.94"/>
  <path id="Fill-104" class="cls-2" d="m97.51,21.38c0-4.05,2.48-6.83,6.49-6.83,3.45,0,5.76,2,5.92,5.06h-3.46c-.2-1.32-1.06-2.2-2.4-2.2-1.7,0-2.82,1.43-2.82,3.92s1.11,3.97,2.82,3.97c1.26,0,2.18-.79,2.4-2.2h3.46c-.17,3.04-2.38,5.1-5.9,5.1-4.07,0-6.5-2.8-6.5-6.81"/>
  <path id="Fill-105" class="cls-2" d="m119.93,18.7c-.18-.85-.94-1.55-2.21-1.55-1.14,0-2.03.52-2.02,1.31,0,.64.45,1.06,1.68,1.32l2.39.48c2.56.52,3.81,1.67,3.82,3.58,0,2.61-2.46,4.35-5.89,4.35s-5.65-1.56-6-4.09l3.6-.19c.22,1.08,1.09,1.63,2.4,1.63s2.13-.56,2.15-1.34c-.02-.66-.54-1.08-1.7-1.31l-2.29-.46c-2.58-.52-3.83-1.8-3.82-3.78,0-2.55,2.22-4.11,5.6-4.11s5.3,1.51,5.63,3.94l-3.36.21Z"/>
  <path id="Fill-106" class="cls-2" d="m21.65,10.78v.03c0,1.24-1,2.24-2.24,2.24s-2.24-1-2.24-2.24v-.03c0-1.24,1-2.24,2.24-2.24s2.24,1,2.24,2.24"/>
  <path id="Fill-107" class="cls-2" d="m95.53,10.78v.03c0,1.24-1,2.24-2.24,2.24s-2.24-1-2.24-2.24v-.03c0-1.24,1-2.24,2.24-2.24s2.24,1,2.24,2.24"/>
  <path id="Fill-108" class="cls-2" d="m95.53,2.24v.03c0,1.24-1,2.24-2.24,2.24s-2.24-1.01-2.24-2.24v-.03c0-1.24,1-2.24,2.24-2.24s2.24,1,2.24,2.24"/>
  <path id="Fill-109" class="cls-2" d="m100.01,6.5v.03c0,1.24-1,2.24-2.24,2.24s-2.24-1.01-2.24-2.24v-.03c0-1.24,1-2.24,2.24-2.24s2.24,1,2.24,2.24"/>
  <g>
    <path class="cls-1" d="m160.85,38.14c.74,0,1.34.6,1.34,1.34s-.6,1.34-1.34,1.34-1.34-.6-1.34-1.34.6-1.34,1.34-1.34m0-.13c-.81,0-1.47.66-1.47,1.47s.66,1.47,1.47,1.47,1.47-.66,1.47-1.47-.66-1.47-1.47-1.47h0Z"/>
    <path class="cls-1" d="m160.36,40.2v-1.44h.51c.11,0,.2.02.28.06s.13.09.17.16c.04.07.05.15.05.23s-.02.17-.06.23c-.04.07-.09.12-.17.16-.07.04-.17.06-.28.06h-.39v-.19h.37c.07,0,.13-.01.17-.03s.08-.05.1-.09c.02-.04.03-.08.03-.14s-.01-.1-.03-.14-.05-.07-.1-.09-.1-.03-.17-.03h-.27v1.26h-.22Zm.71-.65l.36.65h-.25l-.35-.65h.24Z"/>
  </g>
</svg>