<?xml version="1.0" encoding="UTF-8"?>
<svg id="Layer_1" data-name="Layer 1" xmlns="http://www.w3.org/2000/svg" xmlns:xlink="http://www.w3.org/1999/xlink" viewBox="0 0 171.83 51.8">
  <defs>
    <style>
      .cls-1 {
        mask: url(#mask-31);
      }

      .cls-2 {
        mask: url(#mask-30);
      }

      .cls-3 {
        mask: url(#mask-32);
      }

      .cls-4 {
        mask: url(#mask-33);
      }

      .cls-5 {
        mask: url(#mask-22);
      }

      .cls-6 {
        mask: url(#mask-23);
      }

      .cls-7 {
        mask: url(#mask-24);
      }

      .cls-8 {
        mask: url(#mask-25);
      }

      .cls-9 {
        mask: url(#mask-15);
      }

      .cls-10 {
        mask: url(#mask-17);
      }

      .cls-11 {
        mask: url(#mask-18);
      }

      .cls-12 {
        mask: url(#mask-14);
      }

      .cls-13 {
        mask: url(#mask-13);
      }

      .cls-14 {
        mask: url(#mask-19);
      }

      .cls-15 {
        mask: url(#mask-12);
      }

      .cls-16 {
        mask: url(#mask-20);
      }

      .cls-17 {
        mask: url(#mask-21);
      }

      .cls-18 {
        mask: url(#mask-11);
      }

      .cls-19 {
        mask: url(#mask-16);
      }

      .cls-20 {
        mask: url(#mask-10);
      }

      .cls-21 {
        mask: url(#mask-27);
      }

      .cls-22 {
        mask: url(#mask-28);
      }

      .cls-23 {
        mask: url(#mask-29);
      }

      .cls-24 {
        mask: url(#mask-26);
      }

      .cls-25 {
        mask: url(#mask);
      }

      .cls-26, .cls-27 {
        fill: #3f4498;
      }

      .cls-28 {
        mask: url(#mask-2-2);
      }

      .cls-29 {
        mask: url(#mask-4-4);
      }

      .cls-27, .cls-30, .cls-31 {
        fill-rule: evenodd;
      }

      .cls-30 {
        fill: #16162d;
      }

      .cls-31 {
        fill: #fff;
      }

      .cls-32 {
        mask: url(#mask-3);
      }

      .cls-33 {
        mask: url(#mask-5);
      }

      .cls-34 {
        mask: url(#mask-1);
      }

      .cls-35 {
        mask: url(#mask-7);
      }

      .cls-36 {
        mask: url(#mask-6);
      }

      .cls-37 {
        mask: url(#mask-8);
      }

      .cls-38 {
        mask: url(#mask-9);
      }
    </style>
    <mask id="mask" x="0" y="41.48" width="5.94" height="7.98" maskUnits="userSpaceOnUse">
      <g id="mask-2">
        <polygon id="path-1" class="cls-31" points="0 41.48 5.94 41.48 5.94 49.46 0 49.46 0 41.48"/>
      </g>
    </mask>
    <mask id="mask-1" x="0" y="0" width="169.66" height="51.8" maskUnits="userSpaceOnUse">
      <g id="mask-4">
        <polygon id="path-3" class="cls-31" points="0 51.8 169.66 51.8 169.66 0 0 0 0 51.8"/>
      </g>
    </mask>
    <mask id="mask-2-2" data-name="mask-2" x="0" y="0" width="169.66" height="51.8" maskUnits="userSpaceOnUse">
      <g id="mask-4-2" data-name="mask-4">
        <polygon id="path-3-2" data-name="path-3" class="cls-31" points="0 51.8 169.66 51.8 169.66 0 0 0 0 51.8"/>
      </g>
    </mask>
    <mask id="mask-3" x="0" y="0" width="169.66" height="51.8" maskUnits="userSpaceOnUse">
      <g id="mask-4-3" data-name="mask-4">
        <polygon id="path-3-3" data-name="path-3" class="cls-31" points="0 51.8 169.66 51.8 169.66 0 0 0 0 51.8"/>
      </g>
    </mask>
    <mask id="mask-4-4" data-name="mask-4" x="0" y="0" width="169.66" height="51.8" maskUnits="userSpaceOnUse">
      <g id="mask-4-5" data-name="mask-4">
        <polygon id="path-3-4" data-name="path-3" class="cls-31" points="0 51.8 169.66 51.8 169.66 0 0 0 0 51.8"/>
      </g>
    </mask>
    <mask id="mask-5" x="0" y="0" width="169.66" height="51.8" maskUnits="userSpaceOnUse">
      <g id="mask-4-6" data-name="mask-4">
        <polygon id="path-3-5" data-name="path-3" class="cls-31" points="0 51.8 169.66 51.8 169.66 0 0 0 0 51.8"/>
      </g>
    </mask>
    <mask id="mask-6" x="0" y="0" width="169.66" height="51.8" maskUnits="userSpaceOnUse">
      <g id="mask-4-7" data-name="mask-4">
        <polygon id="path-3-6" data-name="path-3" class="cls-31" points="0 51.8 169.66 51.8 169.66 0 0 0 0 51.8"/>
      </g>
    </mask>
    <mask id="mask-7" x="0" y="0" width="169.66" height="51.8" maskUnits="userSpaceOnUse">
      <g id="mask-4-8" data-name="mask-4">
        <polygon id="path-3-7" data-name="path-3" class="cls-31" points="0 51.8 169.66 51.8 169.66 0 0 0 0 51.8"/>
      </g>
    </mask>
    <mask id="mask-8" x="0" y="0" width="169.66" height="51.8" maskUnits="userSpaceOnUse">
      <g id="mask-4-9" data-name="mask-4">
        <polygon id="path-3-8" data-name="path-3" class="cls-31" points="0 51.8 169.66 51.8 169.66 0 0 0 0 51.8"/>
      </g>
    </mask>
    <mask id="mask-9" x="0" y="0" width="169.66" height="51.8" maskUnits="userSpaceOnUse">
      <g id="mask-4-10" data-name="mask-4">
        <polygon id="path-3-9" data-name="path-3" class="cls-31" points="0 51.8 169.66 51.8 169.66 0 0 0 0 51.8"/>
      </g>
    </mask>
    <mask id="mask-10" x="0" y="0" width="169.66" height="51.8" maskUnits="userSpaceOnUse">
      <g id="mask-4-11" data-name="mask-4">
        <polygon id="path-3-10" data-name="path-3" class="cls-31" points="0 51.8 169.66 51.8 169.66 0 0 0 0 51.8"/>
      </g>
    </mask>
    <mask id="mask-11" x="0" y="0" width="169.66" height="51.8" maskUnits="userSpaceOnUse">
      <g id="mask-4-12" data-name="mask-4">
        <polygon id="path-3-11" data-name="path-3" class="cls-31" points="0 51.8 169.66 51.8 169.66 0 0 0 0 51.8"/>
      </g>
    </mask>
    <mask id="mask-12" x="0" y="0" width="169.66" height="51.8" maskUnits="userSpaceOnUse">
      <g id="mask-4-13" data-name="mask-4">
        <polygon id="path-3-12" data-name="path-3" class="cls-31" points="0 51.8 169.66 51.8 169.66 0 0 0 0 51.8"/>
      </g>
    </mask>
    <mask id="mask-13" x="0" y="0" width="169.66" height="51.8" maskUnits="userSpaceOnUse">
      <g id="mask-4-14" data-name="mask-4">
        <polygon id="path-3-13" data-name="path-3" class="cls-31" points="0 51.8 169.66 51.8 169.66 0 0 0 0 51.8"/>
      </g>
    </mask>
    <mask id="mask-14" x="0" y="0" width="169.66" height="51.8" maskUnits="userSpaceOnUse">
      <g id="mask-4-15" data-name="mask-4">
        <polygon id="path-3-14" data-name="path-3" class="cls-31" points="0 51.8 169.66 51.8 169.66 0 0 0 0 51.8"/>
      </g>
    </mask>
    <mask id="mask-15" x="0" y="0" width="169.66" height="51.8" maskUnits="userSpaceOnUse">
      <g id="mask-4-16" data-name="mask-4">
        <polygon id="path-3-15" data-name="path-3" class="cls-31" points="0 51.8 169.66 51.8 169.66 0 0 0 0 51.8"/>
      </g>
    </mask>
    <mask id="mask-16" x="0" y="0" width="169.66" height="51.8" maskUnits="userSpaceOnUse">
      <g id="mask-4-17" data-name="mask-4">
        <polygon id="path-3-16" data-name="path-3" class="cls-31" points="0 51.8 169.66 51.8 169.66 0 0 0 0 51.8"/>
      </g>
    </mask>
    <mask id="mask-17" x="0" y="0" width="169.66" height="51.8" maskUnits="userSpaceOnUse">
      <g id="mask-4-18" data-name="mask-4">
        <polygon id="path-3-17" data-name="path-3" class="cls-31" points="0 51.8 169.66 51.8 169.66 0 0 0 0 51.8"/>
      </g>
    </mask>
    <mask id="mask-18" x="0" y="0" width="169.66" height="51.8" maskUnits="userSpaceOnUse">
      <g id="mask-4-19" data-name="mask-4">
        <polygon id="path-3-18" data-name="path-3" class="cls-31" points="0 51.8 169.66 51.8 169.66 0 0 0 0 51.8"/>
      </g>
    </mask>
    <mask id="mask-19" x="0" y="0" width="169.66" height="51.8" maskUnits="userSpaceOnUse">
      <g id="mask-4-20" data-name="mask-4">
        <polygon id="path-3-19" data-name="path-3" class="cls-31" points="0 51.8 169.66 51.8 169.66 0 0 0 0 51.8"/>
      </g>
    </mask>
    <mask id="mask-20" x="0" y="0" width="169.66" height="51.8" maskUnits="userSpaceOnUse">
      <g id="mask-4-21" data-name="mask-4">
        <polygon id="path-3-20" data-name="path-3" class="cls-31" points="0 51.8 169.66 51.8 169.66 0 0 0 0 51.8"/>
      </g>
    </mask>
    <mask id="mask-21" x="0" y="0" width="169.66" height="51.8" maskUnits="userSpaceOnUse">
      <g id="mask-4-22" data-name="mask-4">
        <polygon id="path-3-21" data-name="path-3" class="cls-31" points="0 51.8 169.66 51.8 169.66 0 0 0 0 51.8"/>
      </g>
    </mask>
    <mask id="mask-22" x="0" y="0" width="169.66" height="51.8" maskUnits="userSpaceOnUse">
      <g id="mask-4-23" data-name="mask-4">
        <polygon id="path-3-22" data-name="path-3" class="cls-31" points="0 51.8 169.66 51.8 169.66 0 0 0 0 51.8"/>
      </g>
    </mask>
    <mask id="mask-23" x="0" y="0" width="169.66" height="51.8" maskUnits="userSpaceOnUse">
      <g id="mask-4-24" data-name="mask-4">
        <polygon id="path-3-23" data-name="path-3" class="cls-31" points="0 51.8 169.66 51.8 169.66 0 0 0 0 51.8"/>
      </g>
    </mask>
    <mask id="mask-24" x="0" y="0" width="169.66" height="51.8" maskUnits="userSpaceOnUse">
      <g id="mask-4-25" data-name="mask-4">
        <polygon id="path-3-24" data-name="path-3" class="cls-31" points="0 51.8 169.66 51.8 169.66 0 0 0 0 51.8"/>
      </g>
    </mask>
    <mask id="mask-25" x="0" y="0" width="169.66" height="51.8" maskUnits="userSpaceOnUse">
      <g id="mask-4-26" data-name="mask-4">
        <polygon id="path-3-25" data-name="path-3" class="cls-31" points="0 51.8 169.66 51.8 169.66 0 0 0 0 51.8"/>
      </g>
    </mask>
    <mask id="mask-26" x="0" y="0" width="169.66" height="51.8" maskUnits="userSpaceOnUse">
      <g id="mask-4-27" data-name="mask-4">
        <polygon id="path-3-26" data-name="path-3" class="cls-31" points="0 51.8 169.66 51.8 169.66 0 0 0 0 51.8"/>
      </g>
    </mask>
    <mask id="mask-27" x="0" y="0" width="169.66" height="51.8" maskUnits="userSpaceOnUse">
      <g id="mask-4-28" data-name="mask-4">
        <polygon id="path-3-27" data-name="path-3" class="cls-31" points="0 51.8 169.66 51.8 169.66 0 0 0 0 51.8"/>
      </g>
    </mask>
    <mask id="mask-28" x="0" y="0" width="169.66" height="51.8" maskUnits="userSpaceOnUse">
      <g id="mask-4-29" data-name="mask-4">
        <polygon id="path-3-28" data-name="path-3" class="cls-31" points="0 51.8 169.66 51.8 169.66 0 0 0 0 51.8"/>
      </g>
    </mask>
    <mask id="mask-29" x="0" y="0" width="169.66" height="51.8" maskUnits="userSpaceOnUse">
      <g id="mask-4-30" data-name="mask-4">
        <polygon id="path-3-29" data-name="path-3" class="cls-31" points="0 51.8 169.66 51.8 169.66 0 0 0 0 51.8"/>
      </g>
    </mask>
    <mask id="mask-30" x="0" y="0" width="169.66" height="51.8" maskUnits="userSpaceOnUse">
      <g id="mask-4-31" data-name="mask-4">
        <polygon id="path-3-30" data-name="path-3" class="cls-31" points="0 51.8 169.66 51.8 169.66 0 0 0 0 51.8"/>
      </g>
    </mask>
    <mask id="mask-31" x="0" y="0" width="169.66" height="51.8" maskUnits="userSpaceOnUse">
      <g id="mask-4-32" data-name="mask-4">
        <polygon id="path-3-31" data-name="path-3" class="cls-31" points="0 51.8 169.66 51.8 169.66 0 0 0 0 51.8"/>
      </g>
    </mask>
    <mask id="mask-32" x="0" y="0" width="169.66" height="51.8" maskUnits="userSpaceOnUse">
      <g id="mask-4-33" data-name="mask-4">
        <polygon id="path-3-32" data-name="path-3" class="cls-31" points="0 51.8 169.66 51.8 169.66 0 0 0 0 51.8"/>
      </g>
    </mask>
    <mask id="mask-33" x="0" y="0" width="169.66" height="51.8" maskUnits="userSpaceOnUse">
      <g id="mask-4-34" data-name="mask-4">
        <polygon id="path-3-33" data-name="path-3" class="cls-31" points="0 51.8 169.66 51.8 169.66 0 0 0 0 51.8"/>
      </g>
    </mask>
  </defs>
  <g id="diaceutics_logo_withstrap_navy" data-name="diaceutics logo withstrap navy">
    <g id="Group">
      <g id="Group-3">
        <g class="cls-25">
          <path id="Fill-1" class="cls-27" d="m2.99,48.25c1.04,0,1.48-.44,1.48-1.08,0-.71-.55-1.26-1.44-1.26h-1.59v2.34h1.55Zm-.12-3.38c.75,0,1.32-.44,1.32-1.14,0-.62-.44-1.06-1.29-1.06h-1.46v2.2h1.43Zm-2.87-3.39h3.05c1.73,0,2.58.88,2.58,2.07,0,.97-.61,1.52-1.39,1.7v.08c.85.04,1.7.75,1.7,1.96s-.9,2.17-2.72,2.17H0v-7.98Z"/>
        </g>
      </g>
      <path id="Fill-4" class="cls-27" d="m11.08,45.9c0-.81-.55-1.4-1.36-1.4s-1.4.64-1.45,1.4h2.81Zm-4.2.6c0-1.85,1.11-3.1,2.82-3.1,1.47,0,2.73.92,2.73,3.02v.43h-4.16c.01,1.03.61,1.63,1.52,1.63.61,0,1.07-.26,1.26-.77l1.31.15c-.25,1.04-1.2,1.72-2.59,1.72-1.8,0-2.9-1.2-2.9-3.07h0Z"/>
      <path id="Fill-6" class="cls-27" d="m16.6,44.57h-1.18v3.09c0,.57.28.7.64.7.17,0,.33-.04.41-.05l.24,1.1c-.15.05-.43.13-.83.14-1.06.03-1.87-.52-1.87-1.65v-3.33h-.85v-1.09h.85v-1.43h1.41v1.43h1.18v1.09Z"/>
      <path id="Fill-8" class="cls-27" d="m20.76,44.57h-1.18v3.09c0,.57.28.7.64.7.18,0,.33-.04.41-.05l.24,1.1c-.15.05-.43.13-.83.14-1.06.03-1.87-.52-1.86-1.65v-3.33h-.85v-1.09h.85v-1.43h1.41v1.43h1.18v1.09Z"/>
      <path id="Fill-10" class="cls-27" d="m25.82,45.9c0-.81-.55-1.4-1.36-1.4s-1.4.64-1.44,1.4h2.8Zm-4.2.6c0-1.85,1.12-3.1,2.82-3.1,1.47,0,2.73.92,2.73,3.02v.43h-4.16c.01,1.03.61,1.63,1.52,1.63.61,0,1.07-.26,1.26-.77l1.31.15c-.25,1.04-1.2,1.72-2.59,1.72-1.8,0-2.9-1.2-2.9-3.07h0Z"/>
      <path id="Fill-12" class="cls-27" d="m28.36,43.47h1.36v1h.06c.22-.69.79-1.08,1.47-1.08.16,0,.38.02.5.04v1.3c-.12-.04-.42-.08-.65-.08-.77,0-1.34.54-1.34,1.3v3.52h-1.41v-5.98Z"/>
      <polygon id="Fill-14" class="cls-27" points="35.13 41.48 41.48 41.48 41.48 42.69 39.02 42.69 39.02 49.46 37.59 49.46 37.59 42.69 35.13 42.69 35.13 41.48"/>
      <path id="Fill-16" class="cls-27" d="m45.71,45.9c0-.81-.55-1.4-1.36-1.4s-1.4.64-1.45,1.4h2.8Zm-4.2.6c0-1.85,1.11-3.1,2.82-3.1,1.47,0,2.73.92,2.73,3.02v.43h-4.16c.01,1.03.61,1.63,1.52,1.63.6,0,1.07-.26,1.26-.77l1.31.15c-.25,1.04-1.2,1.72-2.59,1.72-1.8,0-2.9-1.2-2.9-3.07h0Z"/>
      <path id="Fill-18" class="cls-27" d="m51.69,45.2c-.11-.39-.45-.75-1.1-.75-.59,0-1.03.28-1.03.68,0,.35.24.56.84.69l1.02.22c1.13.24,1.67.77,1.68,1.62,0,1.13-1.06,1.91-2.55,1.91s-2.39-.65-2.56-1.75l1.37-.13c.12.54.54.82,1.18.82s1.11-.31,1.11-.72c0-.34-.26-.56-.8-.68l-1.02-.21c-1.15-.24-1.68-.81-1.68-1.69,0-1.11.97-1.81,2.41-1.81s2.21.65,2.4,1.66l-1.28.14Z"/>
      <path id="Fill-20" class="cls-27" d="m57.24,44.57h-1.18v3.09c0,.57.28.7.64.7.18,0,.33-.04.41-.05l.24,1.1c-.15.05-.43.13-.83.14-1.06.03-1.87-.52-1.87-1.65v-3.33h-.85v-1.09h.85v-1.43h1.41v1.43h1.18v1.09Z"/>
      <g class="cls-34">
        <path id="Fill-22" class="cls-27" d="m58.42,49.46h1.41v-5.98h-1.41v5.98Zm-.11-7.59c0-.43.37-.77.82-.77s.81.34.81.77-.36.76-.81.76-.82-.34-.82-.76h0Z"/>
      </g>
      <g class="cls-28">
        <path id="Fill-24" class="cls-27" d="m62.68,49.46h-1.41v-5.98h1.34v1.02h.07c.27-.66.89-1.09,1.78-1.09,1.23,0,2.05.82,2.04,2.25v3.81h-1.41v-3.59c0-.8-.44-1.28-1.16-1.28s-1.26.5-1.26,1.36v3.5Z"/>
      </g>
      <g class="cls-32">
        <path id="Fill-25" class="cls-27" d="m71.96,46.44c0-1.13-.5-1.88-1.4-1.88s-1.42.8-1.42,1.88.49,1.83,1.42,1.83,1.4-.69,1.4-1.83m-4.05,3.88l1.27-.31c.17.33.54.73,1.39.73.8,0,1.38-.36,1.38-1.22v-1.13h-.07c-.22.44-.69.99-1.72.99-1.38,0-2.46-.97-2.46-2.92s1.08-3.05,2.46-3.05c1.05,0,1.5.63,1.71,1.07h.08v-.99h1.39v6.08c0,1.51-1.19,2.25-2.8,2.25-1.52,0-2.38-.67-2.63-1.49"/>
      </g>
      <g class="cls-29">
        <path id="Fill-26" class="cls-27" d="m76.39,48.8c-.11.98-.54,2.12-.73,2.61h-.95c.11-.47.39-1.55.45-2.6l.03-.44h1.24l-.05.43Z"/>
      </g>
      <g class="cls-33">
        <path id="Fill-27" class="cls-27" d="m83.54,48.25c1.04,0,1.48-.44,1.48-1.08,0-.71-.55-1.26-1.44-1.26h-1.59v2.34h1.55Zm-.12-3.38c.75,0,1.32-.44,1.32-1.14,0-.62-.44-1.06-1.29-1.06h-1.46v2.2h1.43Zm-2.87-3.39h3.05c1.73,0,2.58.88,2.58,2.07,0,.97-.61,1.52-1.39,1.7v.08c.85.04,1.7.75,1.7,1.96s-.89,2.17-2.72,2.17h-3.22v-7.98Z"/>
      </g>
      <g class="cls-36">
        <path id="Fill-28" class="cls-27" d="m91.63,45.9c0-.81-.55-1.4-1.36-1.4s-1.4.64-1.45,1.4h2.8Zm-4.2.6c0-1.85,1.11-3.1,2.82-3.1,1.47,0,2.73.92,2.73,3.02v.43h-4.16c.01,1.03.61,1.63,1.52,1.63.6,0,1.07-.26,1.26-.77l1.31.15c-.25,1.04-1.2,1.72-2.59,1.72-1.8,0-2.9-1.2-2.9-3.07h0Z"/>
      </g>
      <g class="cls-35">
        <path id="Fill-29" class="cls-27" d="m97.15,44.57h-1.18v3.09c0,.57.28.7.64.7.18,0,.33-.04.41-.05l.24,1.1c-.15.05-.43.13-.83.14-1.06.03-1.87-.52-1.86-1.65v-3.33h-.85v-1.09h.85v-1.43h1.41v1.43h1.18v1.09Z"/>
      </g>
      <g class="cls-37">
        <path id="Fill-30" class="cls-27" d="m101.31,44.57h-1.18v3.09c0,.57.28.7.64.7.18,0,.33-.04.41-.05l.24,1.1c-.15.05-.43.13-.83.14-1.06.03-1.87-.52-1.86-1.65v-3.33h-.85v-1.09h.85v-1.43h1.41v1.43h1.18v1.09Z"/>
      </g>
      <g class="cls-38">
        <path id="Fill-31" class="cls-27" d="m106.37,45.9c0-.81-.55-1.4-1.36-1.4s-1.4.64-1.45,1.4h2.81Zm-4.2.6c0-1.85,1.11-3.1,2.82-3.1,1.47,0,2.73.92,2.73,3.02v.43h-4.16c.01,1.03.61,1.63,1.52,1.63.61,0,1.07-.26,1.26-.77l1.31.15c-.25,1.04-1.2,1.72-2.59,1.72-1.8,0-2.9-1.2-2.9-3.07h0Z"/>
      </g>
      <g class="cls-20">
        <path id="Fill-32" class="cls-27" d="m108.91,43.47h1.36v1h.06c.22-.69.79-1.08,1.47-1.08.16,0,.38.02.5.04v1.3c-.12-.04-.41-.08-.65-.08-.77,0-1.34.54-1.34,1.3v3.52h-1.41v-5.98Z"/>
      </g>
      <g class="cls-18">
        <polygon id="Fill-33" class="cls-27" points="115.68 41.48 122.03 41.48 122.03 42.69 119.57 42.69 119.57 49.46 118.14 49.46 118.14 42.69 115.68 42.69 115.68 41.48"/>
      </g>
      <g class="cls-15">
        <path id="Fill-34" class="cls-27" d="m122.57,43.47h1.36v1h.06c.22-.69.79-1.08,1.47-1.08.16,0,.38.02.5.04v1.3c-.12-.04-.42-.08-.65-.08-.77,0-1.34.54-1.34,1.3v3.52h-1.41v-5.98Z"/>
      </g>
      <g class="cls-13">
        <path id="Fill-35" class="cls-27" d="m130.6,45.9c0-.81-.55-1.4-1.36-1.4s-1.4.64-1.45,1.4h2.8Zm-4.2.6c0-1.85,1.11-3.1,2.82-3.1,1.47,0,2.73.92,2.73,3.02v.43h-4.16c.01,1.03.62,1.63,1.52,1.63.61,0,1.07-.26,1.26-.77l1.31.15c-.25,1.04-1.2,1.72-2.59,1.72-1.8,0-2.9-1.2-2.9-3.07h0Z"/>
      </g>
      <g class="cls-12">
        <path id="Fill-36" class="cls-27" d="m136.61,47.31v-.71c-.18.15-.92.24-1.29.29-.63.09-1.1.32-1.1.86s.42.79,1,.79c.85,0,1.38-.56,1.38-1.23m-3.74.47c0-1.35,1.11-1.69,2.26-1.82,1.05-.11,1.48-.13,1.48-.54v-.02c0-.59-.36-.92-1.01-.92-.69,0-1.09.35-1.22.76l-1.31-.19c.31-1.09,1.27-1.65,2.53-1.65,1.14,0,2.42.48,2.42,2.06v4h-1.35v-.82h-.05c-.26.5-.81.94-1.75.94-1.14,0-2-.62-2-1.8"/>
      </g>
      <g class="cls-9">
        <path id="Fill-37" class="cls-27" d="m142.41,44.57h-1.18v3.09c0,.57.28.7.64.7.18,0,.33-.04.41-.05l.24,1.1c-.15.05-.43.13-.83.14-1.06.03-1.87-.52-1.86-1.65v-3.33h-.85v-1.09h.85v-1.43h1.41v1.43h1.18v1.09Z"/>
      </g>
      <g class="cls-19">
        <path id="Fill-38" class="cls-27" d="m143.59,43.47h1.34v1.02h.07c.25-.68.85-1.09,1.65-1.09s1.38.42,1.61,1.09h.06c.26-.66.92-1.09,1.79-1.09,1.1,0,1.86.71,1.86,2.05v4.02h-1.41v-3.8c0-.74-.45-1.07-1.02-1.07-.68,0-1.08.47-1.08,1.14v3.73h-1.38v-3.86c0-.61-.41-1.01-1-1.01s-1.09.5-1.09,1.23v3.64h-1.41v-5.98Z"/>
      </g>
      <g class="cls-10">
        <path id="Fill-39" class="cls-27" d="m157.36,45.9c0-.81-.55-1.4-1.36-1.4s-1.4.64-1.45,1.4h2.81Zm-4.2.6c0-1.85,1.12-3.1,2.82-3.1,1.47,0,2.73.92,2.73,3.02v.43h-4.16c.01,1.03.61,1.63,1.52,1.63.61,0,1.07-.26,1.26-.77l1.31.15c-.25,1.04-1.2,1.72-2.59,1.72-1.8,0-2.9-1.2-2.9-3.07h0Z"/>
      </g>
      <g class="cls-11">
        <path id="Fill-40" class="cls-27" d="m161.31,49.46h-1.41v-5.98h1.34v1.02h.07c.27-.66.89-1.09,1.78-1.09,1.23,0,2.05.82,2.04,2.25v3.81h-1.41v-3.59c0-.8-.44-1.28-1.16-1.28s-1.26.5-1.26,1.36v3.5Z"/>
      </g>
      <g class="cls-14">
        <path id="Fill-41" class="cls-27" d="m169.56,44.57h-1.18v3.09c0,.57.28.7.64.7.17,0,.33-.04.41-.05l.24,1.1c-.15.05-.43.13-.83.14-1.06.03-1.87-.52-1.86-1.65v-3.33h-.85v-1.09h.85v-1.43h1.41v1.43h1.18v1.09Z"/>
      </g>
      <g class="cls-16">
        <path id="Fill-42" class="cls-30" d="m6.53,26.61c3.55,0,5.42-1.83,5.42-6.06s-1.87-6.02-5.41-6.02h-2.55v12.08h2.54ZM0,30.04V11.09h6.75c5.7,0,9.19,3.55,9.19,9.45s-3.49,9.49-9.24,9.49H0Z"/>
      </g>
      <g class="cls-17">
        <polygon id="Fill-43" class="cls-30" points="18.83 30.03 22.76 30.03 22.76 15.83 18.83 15.83 18.83 30.03"/>
      </g>
      <g class="cls-5">
        <path id="Fill-44" class="cls-30" d="m34.02,24.96v-1.51c-.47.31-1.87.52-2.73.64-1.38.19-2.3.74-2.3,1.85s.87,1.65,2.08,1.65c1.72,0,2.95-1.14,2.95-2.63m-8.78,1.11c0-3.17,2.52-4.12,5.32-4.38,2.46-.24,3.43-.36,3.43-1.28v-.06c0-1.16-.76-1.84-2.1-1.84-1.41,0-2.25.69-2.52,1.64l-3.63-.3c.54-2.59,2.78-4.22,6.17-4.22,3.15,0,6.01,1.42,6.01,4.81v9.58h-3.73v-1.97h-.11c-.69,1.32-2.05,2.24-4.14,2.24-2.7,0-4.7-1.42-4.7-4.24"/>
      </g>
      <g class="cls-6">
        <path id="Fill-45" class="cls-30" d="m40.41,22.99c0-4.36,2.66-7.34,6.96-7.34,3.7,0,6.18,2.16,6.35,5.44h-3.71c-.21-1.41-1.13-2.37-2.57-2.37-1.83,0-3.03,1.54-3.03,4.22s1.19,4.26,3.03,4.26c1.35,0,2.34-.85,2.57-2.37h3.71c-.18,3.26-2.56,5.48-6.33,5.48-4.36,0-6.97-3-6.97-7.32"/>
      </g>
      <g class="cls-7">
        <path id="Fill-46" class="cls-30" d="m65.51,21.5c-.01-1.69-1.19-2.91-2.9-2.91s-2.97,1.3-3.05,2.91h5.95Zm-9.83,1.5c0-4.38,2.7-7.35,6.87-7.35,3.74,0,6.66,2.39,6.66,7.21v1.08h-9.65c0,2.13,1.25,3.43,3.21,3.43,1.31,0,2.32-.56,2.72-1.65l3.63.24c-.55,2.64-2.91,4.34-6.42,4.34-4.36,0-7.03-2.81-7.03-7.31h0Z"/>
      </g>
      <g class="cls-8">
        <path id="Fill-47" class="cls-30" d="m80.87,15.83h3.93v14.21h-3.77v-2.58h-.15c-.64,1.66-2.17,2.77-4.3,2.77-2.85,0-4.79-2.02-4.8-5.35v-9.05h3.93v8.34c0,1.67.97,2.72,2.45,2.72s2.71-1,2.7-2.91v-8.16Z"/>
      </g>
      <g class="cls-24">
        <path id="Fill-48" class="cls-30" d="m95.48,18.79h-2.66v6.88c0,1.09.54,1.39,1.33,1.39.37,0,.79-.09.98-.13l.62,2.93c-.4.13-1.12.33-2.13.37-2.85.12-4.74-1.26-4.72-4.04v-7.4h-1.94v-2.96h1.94v-3.4h3.93v3.4h2.66v2.96Z"/>
      </g>
      <g class="cls-21">
        <polygon id="Fill-49" class="cls-30" points="98.04 30.03 101.97 30.03 101.97 15.83 98.04 15.83 98.04 30.03"/>
      </g>
      <g class="cls-22">
        <path id="Fill-50" class="cls-30" d="m104.54,22.99c0-4.36,2.66-7.34,6.96-7.34,3.7,0,6.18,2.16,6.35,5.44h-3.71c-.21-1.41-1.13-2.37-2.57-2.37-1.83,0-3.03,1.54-3.03,4.22s1.19,4.26,3.03,4.26c1.35,0,2.34-.85,2.57-2.37h3.71c-.18,3.26-2.56,5.48-6.33,5.48-4.36,0-6.97-3-6.97-7.32"/>
      </g>
      <g class="cls-23">
        <path id="Fill-51" class="cls-30" d="m128.57,20.1c-.19-.92-1.01-1.66-2.37-1.66-1.22,0-2.18.55-2.17,1.41-.01.68.48,1.14,1.8,1.42l2.57.52c2.75.56,4.09,1.79,4.09,3.85,0,2.8-2.64,4.68-6.31,4.68s-6.06-1.67-6.43-4.39l3.86-.2c.24,1.16,1.17,1.76,2.57,1.76s2.29-.6,2.31-1.44c-.02-.71-.58-1.16-1.82-1.42l-2.45-.49c-2.77-.55-4.1-1.93-4.1-4.06,0-2.74,2.38-4.42,6.01-4.42s5.68,1.62,6.03,4.24l-3.6.22Z"/>
      </g>
      <g class="cls-2">
        <path id="Fill-52" class="cls-30" d="m23.22,11.58v.04c0,1.33-1.08,2.41-2.4,2.41s-2.41-1.08-2.41-2.41v-.04c0-1.33,1.08-2.41,2.41-2.41s2.4,1.08,2.4,2.41"/>
      </g>
      <g class="cls-1">
        <path id="Fill-53" class="cls-30" d="m102.41,11.58v.04c0,1.33-1.08,2.41-2.4,2.41s-2.41-1.08-2.41-2.41v-.04c0-1.33,1.08-2.41,2.41-2.41s2.4,1.08,2.4,2.41"/>
      </g>
      <g class="cls-3">
        <path id="Fill-54" class="cls-30" d="m102.41,2.41v.04c0,1.33-1.08,2.41-2.4,2.41s-2.41-1.08-2.41-2.41v-.04c0-1.33,1.08-2.41,2.41-2.41s2.4,1.08,2.4,2.41"/>
      </g>
      <g class="cls-4">
        <path id="Fill-55" class="cls-30" d="m107.21,6.99v.04c0,1.33-1.08,2.41-2.4,2.41s-2.4-1.08-2.4-2.41v-.04c0-1.33,1.08-2.41,2.4-2.41s2.4,1.08,2.4,2.41"/>
      </g>
    </g>
  </g>
  <g>
    <path class="cls-26" d="m170.83,40.99c.5,0,.91.41.91.91s-.41.91-.91.91-.91-.41-.91-.91.41-.91.91-.91m0-.09c-.55,0-1,.45-1,1s.45,1,1,1,1-.45,1-1-.45-1-1-1h0Z"/>
    <path class="cls-26" d="m170.5,42.39v-.98h.35c.08,0,.14.01.19.04s.09.06.11.11c.02.05.04.1.04.16s-.01.11-.04.16c-.03.05-.06.08-.11.11-.05.03-.11.04-.19.04h-.26v-.13h.25s.09,0,.12-.02.05-.03.07-.06c.01-.03.02-.06.02-.09s0-.07-.02-.1-.04-.05-.07-.06-.07-.02-.12-.02h-.19v.85h-.15Zm.48-.44l.24.44h-.17l-.24-.44h.16Z"/>
  </g>
</svg>